ISO-10303-21;
HEADER;
/* Generated by software containing ST-Developer
 * from STEP Tools, Inc. (www.steptools.com) 
 */

FILE_DESCRIPTION(
/* description */ (''),
/* implementation_level */ '2;1');

FILE_NAME(
/* name */ 'arm.step',
/* time_stamp */ '2026-07-21T18:58:58+07:00',
/* author */ (''),
/* organization */ (''),
/* preprocessor_version */ 'ST-DEVELOPER v20.1',
/* originating_system */ 'Autodesk Translation Framework v15.8.0.0',
/* authorisation */ '');

FILE_SCHEMA (('AUTOMOTIVE_DESIGN { 1 0 10303 214 3 1 1 }'));
ENDSEC;

DATA;
#10=MECHANICAL_DESIGN_GEOMETRIC_PRESENTATION_REPRESENTATION('',(#13),#479);
#11=SHAPE_REPRESENTATION_RELATIONSHIP('SRR','None',#486,#12);
#12=ADVANCED_BREP_SHAPE_REPRESENTATION('',(#14),#478);
#13=STYLED_ITEM('',(#495),#14);
#14=MANIFOLD_SOLID_BREP('Body1',#275);
#15=FACE_BOUND('',#56,.T.);
#16=FACE_BOUND('',#57,.T.);
#17=FACE_BOUND('',#58,.T.);
#18=FACE_BOUND('',#59,.T.);
#19=FACE_BOUND('',#61,.T.);
#20=FACE_BOUND('',#62,.T.);
#21=FACE_BOUND('',#63,.T.);
#22=FACE_BOUND('',#64,.T.);
#23=PLANE('',#301);
#24=PLANE('',#305);
#25=PLANE('',#309);
#26=PLANE('',#313);
#27=PLANE('',#317);
#28=PLANE('',#318);
#29=FACE_OUTER_BOUND('',#43,.T.);
#30=FACE_OUTER_BOUND('',#44,.T.);
#31=FACE_OUTER_BOUND('',#45,.T.);
#32=FACE_OUTER_BOUND('',#46,.T.);
#33=FACE_OUTER_BOUND('',#47,.T.);
#34=FACE_OUTER_BOUND('',#48,.T.);
#35=FACE_OUTER_BOUND('',#49,.T.);
#36=FACE_OUTER_BOUND('',#50,.T.);
#37=FACE_OUTER_BOUND('',#51,.T.);
#38=FACE_OUTER_BOUND('',#52,.T.);
#39=FACE_OUTER_BOUND('',#53,.T.);
#40=FACE_OUTER_BOUND('',#54,.T.);
#41=FACE_OUTER_BOUND('',#55,.T.);
#42=FACE_OUTER_BOUND('',#60,.T.);
#43=EDGE_LOOP('',(#181,#182,#183,#184));
#44=EDGE_LOOP('',(#185,#186,#187,#188));
#45=EDGE_LOOP('',(#189,#190,#191,#192));
#46=EDGE_LOOP('',(#193,#194,#195,#196));
#47=EDGE_LOOP('',(#197,#198,#199,#200));
#48=EDGE_LOOP('',(#201,#202,#203,#204));
#49=EDGE_LOOP('',(#205,#206,#207,#208));
#50=EDGE_LOOP('',(#209,#210,#211,#212));
#51=EDGE_LOOP('',(#213,#214,#215,#216));
#52=EDGE_LOOP('',(#217,#218,#219,#220));
#53=EDGE_LOOP('',(#221,#222,#223,#224));
#54=EDGE_LOOP('',(#225,#226,#227,#228));
#55=EDGE_LOOP('',(#229,#230,#231,#232,#233,#234,#235,#236));
#56=EDGE_LOOP('',(#237));
#57=EDGE_LOOP('',(#238));
#58=EDGE_LOOP('',(#239));
#59=EDGE_LOOP('',(#240));
#60=EDGE_LOOP('',(#241,#242,#243,#244,#245,#246,#247,#248));
#61=EDGE_LOOP('',(#249));
#62=EDGE_LOOP('',(#250));
#63=EDGE_LOOP('',(#251));
#64=EDGE_LOOP('',(#252));
#65=LINE('',#406,#85);
#66=LINE('',#412,#86);
#67=LINE('',#418,#87);
#68=LINE('',#424,#88);
#69=LINE('',#429,#89);
#70=LINE('',#431,#90);
#71=LINE('',#433,#91);
#72=LINE('',#434,#92);
#73=LINE('',#440,#93);
#74=LINE('',#443,#94);
#75=LINE('',#445,#95);
#76=LINE('',#446,#96);
#77=LINE('',#452,#97);
#78=LINE('',#455,#98);
#79=LINE('',#457,#99);
#80=LINE('',#458,#100);
#81=LINE('',#464,#101);
#82=LINE('',#467,#102);
#83=LINE('',#469,#103);
#84=LINE('',#470,#104);
#85=VECTOR('',#325,50.);
#86=VECTOR('',#332,50.);
#87=VECTOR('',#339,50.);
#88=VECTOR('',#346,50.);
#89=VECTOR('',#351,10.);
#90=VECTOR('',#352,10.);
#91=VECTOR('',#353,10.);
#92=VECTOR('',#354,10.);
#93=VECTOR('',#361,10.);
#94=VECTOR('',#364,10.);
#95=VECTOR('',#365,10.);
#96=VECTOR('',#366,10.);
#97=VECTOR('',#373,10.);
#98=VECTOR('',#376,10.);
#99=VECTOR('',#377,10.);
#100=VECTOR('',#378,10.);
#101=VECTOR('',#385,10.);
#102=VECTOR('',#388,10.);
#103=VECTOR('',#389,10.);
#104=VECTOR('',#390,10.);
#105=CIRCLE('',#290,50.);
#106=CIRCLE('',#291,50.);
#107=CIRCLE('',#293,50.);
#108=CIRCLE('',#294,50.);
#109=CIRCLE('',#296,50.);
#110=CIRCLE('',#297,50.);
#111=CIRCLE('',#299,50.);
#112=CIRCLE('',#300,50.);
#113=CIRCLE('',#303,100.);
#114=CIRCLE('',#304,100.);
#115=CIRCLE('',#307,100.);
#116=CIRCLE('',#308,100.);
#117=CIRCLE('',#311,100.);
#118=CIRCLE('',#312,100.);
#119=CIRCLE('',#315,100.);
#120=CIRCLE('',#316,100.);
#121=VERTEX_POINT('',#403);
#122=VERTEX_POINT('',#405);
#123=VERTEX_POINT('',#409);
#124=VERTEX_POINT('',#411);
#125=VERTEX_POINT('',#415);
#126=VERTEX_POINT('',#417);
#127=VERTEX_POINT('',#421);
#128=VERTEX_POINT('',#423);
#129=VERTEX_POINT('',#427);
#130=VERTEX_POINT('',#428);
#131=VERTEX_POINT('',#430);
#132=VERTEX_POINT('',#432);
#133=VERTEX_POINT('',#436);
#134=VERTEX_POINT('',#438);
#135=VERTEX_POINT('',#442);
#136=VERTEX_POINT('',#444);
#137=VERTEX_POINT('',#448);
#138=VERTEX_POINT('',#450);
#139=VERTEX_POINT('',#454);
#140=VERTEX_POINT('',#456);
#141=VERTEX_POINT('',#460);
#142=VERTEX_POINT('',#462);
#143=VERTEX_POINT('',#466);
#144=VERTEX_POINT('',#468);
#145=EDGE_CURVE('',#121,#121,#105,.T.);
#146=EDGE_CURVE('',#121,#122,#65,.T.);
#147=EDGE_CURVE('',#122,#122,#106,.T.);
#148=EDGE_CURVE('',#123,#123,#107,.T.);
#149=EDGE_CURVE('',#123,#124,#66,.T.);
#150=EDGE_CURVE('',#124,#124,#108,.T.);
#151=EDGE_CURVE('',#125,#125,#109,.T.);
#152=EDGE_CURVE('',#125,#126,#67,.T.);
#153=EDGE_CURVE('',#126,#126,#110,.T.);
#154=EDGE_CURVE('',#127,#127,#111,.T.);
#155=EDGE_CURVE('',#127,#128,#68,.T.);
#156=EDGE_CURVE('',#128,#128,#112,.T.);
#157=EDGE_CURVE('',#129,#130,#69,.T.);
#158=EDGE_CURVE('',#129,#131,#70,.T.);
#159=EDGE_CURVE('',#132,#131,#71,.T.);
#160=EDGE_CURVE('',#130,#132,#72,.T.);
#161=EDGE_CURVE('',#133,#130,#113,.T.);
#162=EDGE_CURVE('',#134,#132,#114,.T.);
#163=EDGE_CURVE('',#133,#134,#73,.T.);
#164=EDGE_CURVE('',#133,#135,#74,.T.);
#165=EDGE_CURVE('',#136,#134,#75,.T.);
#166=EDGE_CURVE('',#135,#136,#76,.T.);
#167=EDGE_CURVE('',#137,#135,#115,.T.);
#168=EDGE_CURVE('',#138,#136,#116,.T.);
#169=EDGE_CURVE('',#137,#138,#77,.T.);
#170=EDGE_CURVE('',#137,#139,#78,.T.);
#171=EDGE_CURVE('',#140,#138,#79,.T.);
#172=EDGE_CURVE('',#139,#140,#80,.T.);
#173=EDGE_CURVE('',#141,#139,#117,.T.);
#174=EDGE_CURVE('',#142,#140,#118,.T.);
#175=EDGE_CURVE('',#141,#142,#81,.T.);
#176=EDGE_CURVE('',#141,#143,#82,.T.);
#177=EDGE_CURVE('',#144,#142,#83,.T.);
#178=EDGE_CURVE('',#143,#144,#84,.T.);
#179=EDGE_CURVE('',#129,#143,#119,.T.);
#180=EDGE_CURVE('',#131,#144,#120,.T.);
#181=ORIENTED_EDGE('',*,*,#145,.F.);
#182=ORIENTED_EDGE('',*,*,#146,.T.);
#183=ORIENTED_EDGE('',*,*,#147,.T.);
#184=ORIENTED_EDGE('',*,*,#146,.F.);
#185=ORIENTED_EDGE('',*,*,#148,.F.);
#186=ORIENTED_EDGE('',*,*,#149,.T.);
#187=ORIENTED_EDGE('',*,*,#150,.T.);
#188=ORIENTED_EDGE('',*,*,#149,.F.);
#189=ORIENTED_EDGE('',*,*,#151,.F.);
#190=ORIENTED_EDGE('',*,*,#152,.T.);
#191=ORIENTED_EDGE('',*,*,#153,.T.);
#192=ORIENTED_EDGE('',*,*,#152,.F.);
#193=ORIENTED_EDGE('',*,*,#154,.F.);
#194=ORIENTED_EDGE('',*,*,#155,.T.);
#195=ORIENTED_EDGE('',*,*,#156,.T.);
#196=ORIENTED_EDGE('',*,*,#155,.F.);
#197=ORIENTED_EDGE('',*,*,#157,.F.);
#198=ORIENTED_EDGE('',*,*,#158,.T.);
#199=ORIENTED_EDGE('',*,*,#159,.F.);
#200=ORIENTED_EDGE('',*,*,#160,.F.);
#201=ORIENTED_EDGE('',*,*,#161,.T.);
#202=ORIENTED_EDGE('',*,*,#160,.T.);
#203=ORIENTED_EDGE('',*,*,#162,.F.);
#204=ORIENTED_EDGE('',*,*,#163,.F.);
#205=ORIENTED_EDGE('',*,*,#164,.F.);
#206=ORIENTED_EDGE('',*,*,#163,.T.);
#207=ORIENTED_EDGE('',*,*,#165,.F.);
#208=ORIENTED_EDGE('',*,*,#166,.F.);
#209=ORIENTED_EDGE('',*,*,#167,.T.);
#210=ORIENTED_EDGE('',*,*,#166,.T.);
#211=ORIENTED_EDGE('',*,*,#168,.F.);
#212=ORIENTED_EDGE('',*,*,#169,.F.);
#213=ORIENTED_EDGE('',*,*,#170,.F.);
#214=ORIENTED_EDGE('',*,*,#169,.T.);
#215=ORIENTED_EDGE('',*,*,#171,.F.);
#216=ORIENTED_EDGE('',*,*,#172,.F.);
#217=ORIENTED_EDGE('',*,*,#173,.T.);
#218=ORIENTED_EDGE('',*,*,#172,.T.);
#219=ORIENTED_EDGE('',*,*,#174,.F.);
#220=ORIENTED_EDGE('',*,*,#175,.F.);
#221=ORIENTED_EDGE('',*,*,#176,.F.);
#222=ORIENTED_EDGE('',*,*,#175,.T.);
#223=ORIENTED_EDGE('',*,*,#177,.F.);
#224=ORIENTED_EDGE('',*,*,#178,.F.);
#225=ORIENTED_EDGE('',*,*,#179,.T.);
#226=ORIENTED_EDGE('',*,*,#178,.T.);
#227=ORIENTED_EDGE('',*,*,#180,.F.);
#228=ORIENTED_EDGE('',*,*,#158,.F.);
#229=ORIENTED_EDGE('',*,*,#180,.T.);
#230=ORIENTED_EDGE('',*,*,#177,.T.);
#231=ORIENTED_EDGE('',*,*,#174,.T.);
#232=ORIENTED_EDGE('',*,*,#171,.T.);
#233=ORIENTED_EDGE('',*,*,#168,.T.);
#234=ORIENTED_EDGE('',*,*,#165,.T.);
#235=ORIENTED_EDGE('',*,*,#162,.T.);
#236=ORIENTED_EDGE('',*,*,#159,.T.);
#237=ORIENTED_EDGE('',*,*,#154,.T.);
#238=ORIENTED_EDGE('',*,*,#151,.T.);
#239=ORIENTED_EDGE('',*,*,#148,.T.);
#240=ORIENTED_EDGE('',*,*,#145,.T.);
#241=ORIENTED_EDGE('',*,*,#179,.F.);
#242=ORIENTED_EDGE('',*,*,#157,.T.);
#243=ORIENTED_EDGE('',*,*,#161,.F.);
#244=ORIENTED_EDGE('',*,*,#164,.T.);
#245=ORIENTED_EDGE('',*,*,#167,.F.);
#246=ORIENTED_EDGE('',*,*,#170,.T.);
#247=ORIENTED_EDGE('',*,*,#173,.F.);
#248=ORIENTED_EDGE('',*,*,#176,.T.);
#249=ORIENTED_EDGE('',*,*,#156,.F.);
#250=ORIENTED_EDGE('',*,*,#153,.F.);
#251=ORIENTED_EDGE('',*,*,#150,.F.);
#252=ORIENTED_EDGE('',*,*,#147,.F.);
#253=CYLINDRICAL_SURFACE('',#289,50.);
#254=CYLINDRICAL_SURFACE('',#292,50.);
#255=CYLINDRICAL_SURFACE('',#295,50.);
#256=CYLINDRICAL_SURFACE('',#298,50.);
#257=CYLINDRICAL_SURFACE('',#302,100.);
#258=CYLINDRICAL_SURFACE('',#306,100.);
#259=CYLINDRICAL_SURFACE('',#310,100.);
#260=CYLINDRICAL_SURFACE('',#314,100.);
#261=ADVANCED_FACE('',(#29),#253,.F.);
#262=ADVANCED_FACE('',(#30),#254,.F.);
#263=ADVANCED_FACE('',(#31),#255,.F.);
#264=ADVANCED_FACE('',(#32),#256,.F.);
#265=ADVANCED_FACE('',(#33),#23,.T.);
#266=ADVANCED_FACE('',(#34),#257,.T.);
#267=ADVANCED_FACE('',(#35),#24,.T.);
#268=ADVANCED_FACE('',(#36),#258,.T.);
#269=ADVANCED_FACE('',(#37),#25,.T.);
#270=ADVANCED_FACE('',(#38),#259,.T.);
#271=ADVANCED_FACE('',(#39),#26,.T.);
#272=ADVANCED_FACE('',(#40),#260,.T.);
#273=ADVANCED_FACE('',(#41,#15,#16,#17,#18),#27,.T.);
#274=ADVANCED_FACE('',(#42,#19,#20,#21,#22),#28,.F.);
#275=CLOSED_SHELL('',(#261,#262,#263,#264,#265,#266,#267,#268,#269,#270,
#271,#272,#273,#274));
#276=DERIVED_UNIT_ELEMENT(#278,1.);
#277=DERIVED_UNIT_ELEMENT(#481,-3.);
#278=(
MASS_UNIT()
NAMED_UNIT(*)
SI_UNIT(.KILO.,.GRAM.)
);
#279=DERIVED_UNIT((#276,#277));
#280=MEASURE_REPRESENTATION_ITEM('density measure',
POSITIVE_RATIO_MEASURE(7850.),#279);
#281=PROPERTY_DEFINITION_REPRESENTATION(#286,#283);
#282=PROPERTY_DEFINITION_REPRESENTATION(#287,#284);
#283=REPRESENTATION('material name',(#285),#478);
#284=REPRESENTATION('density',(#280),#478);
#285=DESCRIPTIVE_REPRESENTATION_ITEM('Steel','Steel');
#286=PROPERTY_DEFINITION('material property','material name',#488);
#287=PROPERTY_DEFINITION('material property','density of part',#488);
#288=AXIS2_PLACEMENT_3D('',#401,#319,#320);
#289=AXIS2_PLACEMENT_3D('',#402,#321,#322);
#290=AXIS2_PLACEMENT_3D('',#404,#323,#324);
#291=AXIS2_PLACEMENT_3D('',#407,#326,#327);
#292=AXIS2_PLACEMENT_3D('',#408,#328,#329);
#293=AXIS2_PLACEMENT_3D('',#410,#330,#331);
#294=AXIS2_PLACEMENT_3D('',#413,#333,#334);
#295=AXIS2_PLACEMENT_3D('',#414,#335,#336);
#296=AXIS2_PLACEMENT_3D('',#416,#337,#338);
#297=AXIS2_PLACEMENT_3D('',#419,#340,#341);
#298=AXIS2_PLACEMENT_3D('',#420,#342,#343);
#299=AXIS2_PLACEMENT_3D('',#422,#344,#345);
#300=AXIS2_PLACEMENT_3D('',#425,#347,#348);
#301=AXIS2_PLACEMENT_3D('',#426,#349,#350);
#302=AXIS2_PLACEMENT_3D('',#435,#355,#356);
#303=AXIS2_PLACEMENT_3D('',#437,#357,#358);
#304=AXIS2_PLACEMENT_3D('',#439,#359,#360);
#305=AXIS2_PLACEMENT_3D('',#441,#362,#363);
#306=AXIS2_PLACEMENT_3D('',#447,#367,#368);
#307=AXIS2_PLACEMENT_3D('',#449,#369,#370);
#308=AXIS2_PLACEMENT_3D('',#451,#371,#372);
#309=AXIS2_PLACEMENT_3D('',#453,#374,#375);
#310=AXIS2_PLACEMENT_3D('',#459,#379,#380);
#311=AXIS2_PLACEMENT_3D('',#461,#381,#382);
#312=AXIS2_PLACEMENT_3D('',#463,#383,#384);
#313=AXIS2_PLACEMENT_3D('',#465,#386,#387);
#314=AXIS2_PLACEMENT_3D('',#471,#391,#392);
#315=AXIS2_PLACEMENT_3D('',#472,#393,#394);
#316=AXIS2_PLACEMENT_3D('',#473,#395,#396);
#317=AXIS2_PLACEMENT_3D('',#474,#397,#398);
#318=AXIS2_PLACEMENT_3D('',#475,#399,#400);
#319=DIRECTION('axis',(0.,0.,1.));
#320=DIRECTION('refdir',(1.,0.,0.));
#321=DIRECTION('center_axis',(0.,1.,0.));
#322=DIRECTION('ref_axis',(1.,0.,0.));
#323=DIRECTION('center_axis',(0.,-1.,0.));
#324=DIRECTION('ref_axis',(1.,0.,0.));
#325=DIRECTION('',(0.,-1.,0.));
#326=DIRECTION('center_axis',(0.,-1.,0.));
#327=DIRECTION('ref_axis',(1.,0.,0.));
#328=DIRECTION('center_axis',(0.,1.,0.));
#329=DIRECTION('ref_axis',(1.,0.,0.));
#330=DIRECTION('center_axis',(0.,-1.,0.));
#331=DIRECTION('ref_axis',(1.,0.,0.));
#332=DIRECTION('',(0.,-1.,0.));
#333=DIRECTION('center_axis',(0.,-1.,0.));
#334=DIRECTION('ref_axis',(1.,0.,0.));
#335=DIRECTION('center_axis',(0.,1.,0.));
#336=DIRECTION('ref_axis',(1.,0.,0.));
#337=DIRECTION('center_axis',(0.,-1.,0.));
#338=DIRECTION('ref_axis',(1.,0.,0.));
#339=DIRECTION('',(0.,-1.,0.));
#340=DIRECTION('center_axis',(0.,-1.,0.));
#341=DIRECTION('ref_axis',(1.,0.,0.));
#342=DIRECTION('center_axis',(0.,1.,0.));
#343=DIRECTION('ref_axis',(1.,0.,0.));
#344=DIRECTION('center_axis',(0.,-1.,0.));
#345=DIRECTION('ref_axis',(1.,0.,0.));
#346=DIRECTION('',(0.,-1.,0.));
#347=DIRECTION('center_axis',(0.,-1.,0.));
#348=DIRECTION('ref_axis',(1.,0.,0.));
#349=DIRECTION('center_axis',(-0.196585626733767,0.,0.98048666047106));
#350=DIRECTION('ref_axis',(0.98048666047106,0.,0.196585626733767));
#351=DIRECTION('',(-0.98048666047106,0.,-0.196585626733767));
#352=DIRECTION('',(0.,1.,0.));
#353=DIRECTION('',(0.98048666047106,0.,0.196585626733767));
#354=DIRECTION('',(0.,1.,0.));
#355=DIRECTION('center_axis',(0.,1.,0.));
#356=DIRECTION('ref_axis',(-0.9997931578139,0.,-0.0203381805604425));
#357=DIRECTION('center_axis',(0.,1.,0.));
#358=DIRECTION('ref_axis',(1.,0.,0.));
#359=DIRECTION('center_axis',(0.,1.,0.));
#360=DIRECTION('ref_axis',(1.,0.,0.));
#361=DIRECTION('',(0.,1.,0.));
#362=DIRECTION('center_axis',(-0.156539239911891,0.,-0.987671740188919));
#363=DIRECTION('ref_axis',(-0.987671740188919,0.,0.156539239911891));
#364=DIRECTION('',(0.987671740188919,0.,-0.156539239911891));
#365=DIRECTION('',(-0.987671740188919,0.,0.156539239911891));
#366=DIRECTION('',(0.,1.,0.));
#367=DIRECTION('center_axis',(0.,1.,0.));
#368=DIRECTION('ref_axis',(1.,0.,0.));
#369=DIRECTION('center_axis',(0.,1.,0.));
#370=DIRECTION('ref_axis',(1.,0.,0.));
#371=DIRECTION('center_axis',(0.,1.,0.));
#372=DIRECTION('ref_axis',(1.,0.,0.));
#373=DIRECTION('',(0.,1.,0.));
#374=DIRECTION('center_axis',(0.529428135702295,0.,-0.848354789652768));
#375=DIRECTION('ref_axis',(-0.848354789652768,0.,-0.529428135702295));
#376=DIRECTION('',(0.848354789652768,0.,0.529428135702295));
#377=DIRECTION('',(-0.848354789652768,0.,-0.529428135702295));
#378=DIRECTION('',(0.,1.,0.));
#379=DIRECTION('center_axis',(0.,1.,0.));
#380=DIRECTION('ref_axis',(1.,0.,0.));
#381=DIRECTION('center_axis',(0.,1.,0.));
#382=DIRECTION('ref_axis',(1.,0.,0.));
#383=DIRECTION('center_axis',(0.,1.,0.));
#384=DIRECTION('ref_axis',(1.,0.,0.));
#385=DIRECTION('',(0.,1.,0.));
#386=DIRECTION('center_axis',(-0.0795999024104468,0.,0.996826893465584));
#387=DIRECTION('ref_axis',(0.996826893465584,0.,0.0795999024104468));
#388=DIRECTION('',(-0.996826893465584,0.,-0.0795999024104468));
#389=DIRECTION('',(0.996826893465584,0.,0.0795999024104468));
#390=DIRECTION('',(0.,1.,0.));
#391=DIRECTION('center_axis',(0.,1.,0.));
#392=DIRECTION('ref_axis',(1.,0.,0.));
#393=DIRECTION('center_axis',(0.,1.,0.));
#394=DIRECTION('ref_axis',(1.,0.,0.));
#395=DIRECTION('center_axis',(0.,1.,0.));
#396=DIRECTION('ref_axis',(1.,0.,0.));
#397=DIRECTION('center_axis',(0.,1.,0.));
#398=DIRECTION('ref_axis',(1.,0.,0.));
#399=DIRECTION('center_axis',(0.,1.,0.));
#400=DIRECTION('ref_axis',(1.,0.,0.));
#401=CARTESIAN_POINT('',(0.,0.,0.));
#402=CARTESIAN_POINT('Origin',(2463.64838872724,0.,-390.471480036221));
#403=CARTESIAN_POINT('',(2413.64838872724,100.,-390.471480036221));
#404=CARTESIAN_POINT('Origin',(2463.64838872724,100.,-390.471480036221));
#405=CARTESIAN_POINT('',(2413.64838872724,0.,-390.471480036221));
#406=CARTESIAN_POINT('',(2413.64838872724,0.,-390.471480036221));
#407=CARTESIAN_POINT('Origin',(2463.64838872724,0.,-390.471480036221));
#408=CARTESIAN_POINT('Origin',(1598.19325656783,0.,320.434571576041));
#409=CARTESIAN_POINT('',(1548.19325656783,100.,320.434571576041));
#410=CARTESIAN_POINT('Origin',(1598.19325656783,100.,320.434571576041));
#411=CARTESIAN_POINT('',(1548.19325656783,0.,320.434571576041));
#412=CARTESIAN_POINT('',(1548.19325656783,0.,320.434571576041));
#413=CARTESIAN_POINT('Origin',(1598.19325656783,0.,320.434571576041));
#414=CARTESIAN_POINT('Origin',(3896.94380584559,0.,503.997355232808));
#415=CARTESIAN_POINT('',(3846.94380584559,100.,503.997355232808));
#416=CARTESIAN_POINT('Origin',(3896.94380584559,100.,503.997355232808));
#417=CARTESIAN_POINT('',(3846.94380584559,0.,503.997355232808));
#418=CARTESIAN_POINT('',(3846.94380584559,0.,503.997355232808));
#419=CARTESIAN_POINT('Origin',(3896.94380584559,0.,503.997355232808));
#420=CARTESIAN_POINT('Origin',(0.,0.,0.));
#421=CARTESIAN_POINT('',(-50.,100.,6.12323399573677E-15));
#422=CARTESIAN_POINT('Origin',(0.,100.,0.));
#423=CARTESIAN_POINT('',(-50.,0.,6.12323399573677E-15));
#424=CARTESIAN_POINT('',(-50.,0.,6.12323399573677E-15));
#425=CARTESIAN_POINT('Origin',(0.,0.,0.));
#426=CARTESIAN_POINT('Origin',(-19.6571803673177,0.,98.0489431967235));
#427=CARTESIAN_POINT('',(1578.53382564927,0.,418.483063537715));
#428=CARTESIAN_POINT('',(-19.6571803653642,0.,98.0489431869795));
#429=CARTESIAN_POINT('',(1584.33564245601,0.,419.646316280511));
#430=CARTESIAN_POINT('',(1578.53382564927,100.,418.483063537715));
#431=CARTESIAN_POINT('',(1578.53382564927,0.,418.483063537715));
#432=CARTESIAN_POINT('',(-19.6571803653642,100.,98.0489431869795));
#433=CARTESIAN_POINT('',(1584.33564245601,100.,419.646316280511));
#434=CARTESIAN_POINT('',(-19.6571803653642,0.,98.0489431869795));
#435=CARTESIAN_POINT('Origin',(0.,0.,0.));
#436=CARTESIAN_POINT('',(-15.6534690335042,0.,-98.7672461255103));
#437=CARTESIAN_POINT('Origin',(0.,0.,0.));
#438=CARTESIAN_POINT('',(-15.6534690335042,100.,-98.7672461255103));
#439=CARTESIAN_POINT('Origin',(0.,100.,0.));
#440=CARTESIAN_POINT('',(-15.6534690335042,0.,-98.7672461255103));
#441=CARTESIAN_POINT('Origin',(2447.99589459522,0.,-489.238880678047));
#442=CARTESIAN_POINT('',(2447.99589459686,0.,-489.238880667697));
#443=CARTESIAN_POINT('',(-566.137511004582,0.,-11.5192769811929));
#444=CARTESIAN_POINT('',(2447.99589459686,100.,-489.238880667697));
#445=CARTESIAN_POINT('',(-566.137511004582,100.,-11.5192769811929));
#446=CARTESIAN_POINT('',(2447.99589459686,0.,-489.238880667697));
#447=CARTESIAN_POINT('Origin',(2463.64838872724,0.,-390.471480036221));
#448=CARTESIAN_POINT('',(2516.59120542628,0.,-475.30695704892));
#449=CARTESIAN_POINT('Origin',(2463.64838872724,0.,-390.471480036221));
#450=CARTESIAN_POINT('',(2516.59120542628,100.,-475.30695704892));
#451=CARTESIAN_POINT('Origin',(2463.64838872724,100.,-390.471480036221));
#452=CARTESIAN_POINT('',(2516.59120542628,0.,-475.30695704892));
#453=CARTESIAN_POINT('Origin',(3949.88661838699,0.,419.161875625472));
#454=CARTESIAN_POINT('',(3949.88661838699,0.,419.161875625472));
#455=CARTESIAN_POINT('',(2484.89537986848,0.,-495.087197626662));
#456=CARTESIAN_POINT('',(3949.88661838699,100.,419.161875625472));
#457=CARTESIAN_POINT('',(2484.89537986848,100.,-495.087197626662));
#458=CARTESIAN_POINT('',(3949.88661838699,0.,419.161875625472));
#459=CARTESIAN_POINT('Origin',(3896.94380584559,0.,503.997355232808));
#460=CARTESIAN_POINT('',(3888.98499151339,0.,603.680138472571));
#461=CARTESIAN_POINT('Origin',(3896.94380584559,0.,503.997355232808));
#462=CARTESIAN_POINT('',(3888.98499151339,100.,603.680138472571));
#463=CARTESIAN_POINT('Origin',(3896.94380584559,100.,503.997355232808));
#464=CARTESIAN_POINT('',(3888.98499151339,0.,603.680138472571));
#465=CARTESIAN_POINT('Origin',(1590.23397492046,0.,420.117317506133));
#466=CARTESIAN_POINT('',(1590.23397492066,0.,420.117317503614));
#467=CARTESIAN_POINT('',(4297.87916474754,0.,636.331681589993));
#468=CARTESIAN_POINT('',(1590.23397492066,100.,420.117317503614));
#469=CARTESIAN_POINT('',(4297.87916474754,100.,636.331681589993));
#470=CARTESIAN_POINT('',(1590.23397492066,0.,420.117317503614));
#471=CARTESIAN_POINT('Origin',(1598.19325656783,0.,320.434571576041));
#472=CARTESIAN_POINT('Origin',(1598.19325656783,0.,320.434571576041));
#473=CARTESIAN_POINT('Origin',(1598.19325656783,100.,320.434571576041));
#474=CARTESIAN_POINT('Origin',(1948.4719029228,100.,56.7629375982939));
#475=CARTESIAN_POINT('Origin',(1948.4719029228,0.,56.7629375982939));
#476=UNCERTAINTY_MEASURE_WITH_UNIT(LENGTH_MEASURE(0.01),#480,
'DISTANCE_ACCURACY_VALUE',
'Maximum model space distance between geometric entities at asserted c
onnectivities');
#477=UNCERTAINTY_MEASURE_WITH_UNIT(LENGTH_MEASURE(0.01),#480,
'DISTANCE_ACCURACY_VALUE',
'Maximum model space distance between geometric entities at asserted c
onnectivities');
#478=(
GEOMETRIC_REPRESENTATION_CONTEXT(3)
GLOBAL_UNCERTAINTY_ASSIGNED_CONTEXT((#476))
GLOBAL_UNIT_ASSIGNED_CONTEXT((#480,#482,#483))
REPRESENTATION_CONTEXT('','3D')
);
#479=(
GEOMETRIC_REPRESENTATION_CONTEXT(3)
GLOBAL_UNCERTAINTY_ASSIGNED_CONTEXT((#477))
GLOBAL_UNIT_ASSIGNED_CONTEXT((#480,#482,#483))
REPRESENTATION_CONTEXT('','3D')
);
#480=(
LENGTH_UNIT()
NAMED_UNIT(*)
SI_UNIT(.MILLI.,.METRE.)
);
#481=(
LENGTH_UNIT()
NAMED_UNIT(*)
SI_UNIT($,.METRE.)
);
#482=(
NAMED_UNIT(*)
PLANE_ANGLE_UNIT()
SI_UNIT($,.RADIAN.)
);
#483=(
NAMED_UNIT(*)
SI_UNIT($,.STERADIAN.)
SOLID_ANGLE_UNIT()
);
#484=SHAPE_DEFINITION_REPRESENTATION(#485,#486);
#485=PRODUCT_DEFINITION_SHAPE('',$,#488);
#486=SHAPE_REPRESENTATION('',(#288),#478);
#487=PRODUCT_DEFINITION_CONTEXT('part definition',#492,'design');
#488=PRODUCT_DEFINITION('2026-07-21-18-39-46-623','arm',#489,#487);
#489=PRODUCT_DEFINITION_FORMATION('',$,#494);
#490=PRODUCT_RELATED_PRODUCT_CATEGORY('arm','arm',(#494));
#491=APPLICATION_PROTOCOL_DEFINITION('international standard',
'automotive_design',2009,#492);
#492=APPLICATION_CONTEXT(
'Core Data for Automotive Mechanical Design Process');
#493=PRODUCT_CONTEXT('part definition',#492,'mechanical');
#494=PRODUCT('2026-07-21-18-39-46-623','arm',$,(#493));
#495=PRESENTATION_STYLE_ASSIGNMENT((#496));
#496=SURFACE_STYLE_USAGE(.BOTH.,#497);
#497=SURFACE_SIDE_STYLE('',(#498));
#498=SURFACE_STYLE_FILL_AREA(#499);
#499=FILL_AREA_STYLE('Steel - Satin',(#500));
#500=FILL_AREA_STYLE_COLOUR('Steel - Satin',#501);
#501=COLOUR_RGB('Steel - Satin',0.627450980392157,0.627450980392157,0.627450980392157);
ENDSEC;
END-ISO-10303-21;
